<svg xmlns="http://www.w3.org/2000/svg" xmlns:xlink="http://www.w3.org/1999/xlink" width="1080" zoomAndPan="magnify" viewBox="0 0 810 809.999993" height="1080" preserveAspectRatio="xMidYMid meet" version="1.0"><defs><clipPath id="69655f31e2"><path d="M 100.640625 88.980469 L 720.890625 88.980469 L 720.890625 709.230469 L 100.640625 709.230469 Z M 100.640625 88.980469 " clip-rule="nonzero"/></clipPath></defs><g clip-path="url(#69655f31e2)"><path fill="#d78b8b" d="M 591.765625 657.652344 L 643.460938 657.652344 L 643.460938 349.25 C 613.476562 329.785156 578.453125 310.246094 544.847656 296.210938 C 553.351562 282.148438 559.6875 265.476562 562.863281 247.691406 C 609.933594 267.078125 653.308594 293.003906 695.160156 321.617188 L 695.160156 657.652344 L 721.007812 657.652344 L 721.007812 709.347656 L 100.640625 709.347656 L 100.640625 657.652344 L 126.488281 657.652344 L 126.488281 321.617188 C 168.234375 293.597656 211.738281 267.855469 258.886719 248.46875 C 262.425781 265.628906 268.890625 281.890625 277.703125 296.625 C 242.550781 311.175781 210.132812 329.375 178.46875 349.355469 L 178.1875 349.535156 L 178.1875 657.652344 L 229.882812 657.652344 L 229.882812 528.40625 L 591.765625 528.40625 Z M 281.582031 683.5 L 359.125 683.5 L 359.125 580.105469 L 281.582031 580.105469 Z M 384.976562 683.5 L 436.671875 683.5 L 436.671875 580.105469 L 384.976562 580.105469 Z M 462.519531 683.5 L 540.066406 683.5 L 540.066406 580.105469 L 462.519531 580.105469 Z M 229.882812 502.558594 L 281.582031 502.558594 L 281.582031 450.863281 L 229.882812 450.863281 Z M 333.277344 502.558594 L 384.976562 502.558594 L 384.976562 450.863281 L 333.277344 450.863281 Z M 436.671875 502.558594 L 488.371094 502.558594 L 488.371094 450.863281 L 436.671875 450.863281 Z M 540.066406 502.558594 L 591.765625 502.558594 L 591.765625 450.863281 L 540.066406 450.863281 Z M 229.882812 425.011719 L 281.582031 425.011719 L 281.582031 373.316406 L 229.882812 373.316406 Z M 333.277344 425.011719 L 384.976562 425.011719 L 384.976562 373.316406 L 333.277344 373.316406 Z M 436.671875 425.011719 L 488.371094 425.011719 L 488.371094 373.316406 L 436.671875 373.316406 Z M 540.066406 425.011719 L 591.765625 425.011719 L 591.765625 373.316406 L 540.066406 373.316406 Z M 410.824219 88.980469 C 482.164062 88.980469 540.066406 146.882812 540.066406 218.222656 C 540.066406 289.566406 482.164062 347.46875 410.824219 347.46875 C 339.480469 347.46875 281.582031 289.566406 281.582031 218.222656 C 281.582031 146.882812 339.480469 88.980469 410.824219 88.980469 M 436.671875 192.375 L 436.671875 140.679688 L 384.976562 140.679688 L 384.976562 192.375 L 333.277344 192.375 L 333.277344 244.074219 L 384.976562 244.074219 L 384.976562 295.769531 L 436.671875 295.769531 L 436.671875 244.074219 L 488.371094 244.074219 L 488.371094 192.375 Z M 436.671875 192.375 " fill-opacity="1" fill-rule="evenodd"/></g></svg>