<svg xmlns="http://www.w3.org/2000/svg" xmlns:xlink="http://www.w3.org/1999/xlink" width="1080" zoomAndPan="magnify" viewBox="0 0 810 809.999993" height="1080" preserveAspectRatio="xMidYMid meet" version="1.0"><defs><clipPath id="87238e7f49"><path d="M 115.296875 115.296875 L 695 115.296875 L 695 695 L 115.296875 695 Z M 115.296875 115.296875 " clip-rule="nonzero"/></clipPath><clipPath id="28d8eed428"><path d="M 220.890625 330 L 589.648438 330 L 589.648438 652.535156 L 220.890625 652.535156 Z M 220.890625 330 " clip-rule="nonzero"/></clipPath><clipPath id="413bed2d2a"><path d="M 235.488281 381.789062 C 205.632812 430.972656 226.664062 478.847656 253.097656 504.257812 L 407.648438 652.535156 L 558.9375 504.789062 C 583.523438 477.453125 592.945312 448.460938 587.710938 416.175781 C 580.480469 371.515625 543.679688 336.867188 498.214844 331.917969 C 470.332031 328.914062 443.394531 336.808594 422.375 354.277344 C 416.714844 358.976562 411.65625 364.230469 407.25 369.941406 C 402.019531 363.441406 395.886719 357.492188 388.953125 352.21875 C 364.777344 333.847656 334.003906 326.550781 304.445312 332.226562 C 276.449219 337.632812 251.320312 355.691406 235.488281 381.789062 Z M 235.488281 381.789062 " clip-rule="nonzero"/></clipPath></defs><g clip-path="url(#87238e7f49)"><path fill="#e5bbbb" d="M 694.695312 163.582031 L 694.695312 694.695312 L 115.296875 694.695312 L 115.296875 163.582031 L 187.722656 163.582031 L 187.722656 187.722656 C 187.722656 214.351562 209.378906 236.003906 236.003906 236.003906 C 262.632812 236.003906 284.289062 214.351562 284.289062 187.722656 L 284.289062 163.582031 L 525.703125 163.582031 L 525.703125 187.722656 C 525.703125 214.351562 547.359375 236.003906 573.988281 236.003906 C 600.617188 236.003906 622.269531 214.351562 622.269531 187.722656 L 622.269531 163.582031 Z M 646.414062 308.429688 L 163.582031 308.429688 L 163.582031 646.414062 L 646.414062 646.414062 Z M 598.128906 139.4375 C 598.128906 126.113281 587.339844 115.296875 573.988281 115.296875 C 560.636719 115.296875 549.847656 126.113281 549.847656 139.4375 L 549.847656 187.722656 C 549.847656 201.046875 560.636719 211.863281 573.988281 211.863281 C 587.339844 211.863281 598.128906 201.046875 598.128906 187.722656 Z M 260.148438 187.722656 C 260.148438 201.046875 249.355469 211.863281 236.003906 211.863281 C 222.65625 211.863281 211.863281 201.046875 211.863281 187.722656 L 211.863281 139.4375 C 211.863281 126.113281 222.65625 115.296875 236.003906 115.296875 C 249.355469 115.296875 260.148438 126.113281 260.148438 139.4375 Z M 284.289062 470.878906 L 304.929688 451.78125 C 329.070312 463.46875 344.402344 472.351562 371.558594 491.714844 C 422.570312 433.796875 456.320312 404.417969 518.96875 365.429688 L 525.703125 380.878906 C 474.015625 426 436.164062 476.214844 381.652344 573.988281 C 348.023438 534.394531 325.59375 509.144531 284.289062 470.878906 Z M 284.289062 470.878906 " fill-opacity="1" fill-rule="nonzero"/></g><g clip-path="url(#28d8eed428)"><g clip-path="url(#413bed2d2a)"><path fill="#e5bbbb" d="M 220.890625 330.34375 L 589.648438 330.34375 L 589.648438 652.535156 L 220.890625 652.535156 Z M 220.890625 330.34375 " fill-opacity="1" fill-rule="nonzero"/></g></g></svg>