<svg xmlns="http://www.w3.org/2000/svg" xmlns:xlink="http://www.w3.org/1999/xlink" width="1080" zoomAndPan="magnify" viewBox="0 0 810 809.999993" height="1080" preserveAspectRatio="xMidYMid meet" version="1.0"><path fill="#d78b8b" d="M 729 621 L 554.714844 729 L 405 621 L 255.285156 729 L 81 621 L 81 81 L 255.285156 189 L 405 81 L 554.714844 189 L 729 81 Z M 418.5 270 L 391.5 270 L 391.5 124.039062 L 270 211.679688 L 270 324 L 243 324 L 243 213.136719 L 108 129.492188 L 108 605.960938 L 243 689.632812 L 243 513 L 270 513 L 270 685.097656 L 391.5 597.457031 L 391.5 459 L 418.5 459 L 418.5 597.457031 L 540 685.097656 L 540 540 L 567 540 L 567 689.632812 L 702 605.960938 L 702 129.492188 L 567 213.136719 L 567 297 L 540 297 L 540 211.679688 L 418.5 124.039062 Z M 639.144531 459.433594 L 604.152344 425.035156 L 638.523438 390.121094 L 619.40625 371.167969 L 585.0625 406.105469 L 550.125 371.789062 L 531.144531 390.742188 L 566.136719 425.195312 L 531.765625 460.1875 L 550.746094 479.167969 L 585.226562 444.121094 L 620.191406 478.546875 Z M 258.390625 443.070312 C 248.320312 443.070312 238.382812 441.289062 228.90625 437.804688 L 239.894531 407.96875 C 245.863281 410.15625 252.070312 411.265625 258.390625 411.265625 C 265.410156 411.265625 272.269531 409.914062 278.746094 407.242188 L 290.84375 436.671875 C 280.503906 440.910156 269.59375 443.070312 258.390625 443.070312 Z M 188.164062 378.972656 C 173.71875 378.972656 162 390.664062 162 405.109375 C 162 419.527344 173.71875 431.242188 188.164062 431.242188 C 202.609375 431.242188 214.324219 419.527344 214.324219 405.109375 C 214.324219 390.664062 202.609375 378.972656 188.164062 378.972656 Z M 492.480469 421.929688 L 447.6875 396.414062 L 463.429688 368.765625 L 508.246094 394.28125 Z M 318.195312 421.390625 L 301.859375 394.09375 L 346.085938 367.605469 L 362.449219 394.875 Z M 423.980469 383.371094 C 417.421875 380.644531 410.480469 379.242188 403.378906 379.242188 C 397.144531 379.242188 391.039062 380.320312 385.183594 382.429688 L 374.328125 352.511719 C 383.671875 349.136719 393.445312 347.4375 403.378906 347.4375 C 414.691406 347.4375 425.789062 349.648438 436.210938 353.996094 Z M 423.980469 383.371094 " fill-opacity="1" fill-rule="evenodd"/></svg>