<svg xmlns="http://www.w3.org/2000/svg" xmlns:xlink="http://www.w3.org/1999/xlink" width="1080" zoomAndPan="magnify" viewBox="0 0 810 809.999993" height="1080" preserveAspectRatio="xMidYMid meet" version="1.0"><defs><clipPath id="7ce69bb15d"><path d="M 33.246094 87 L 776 87 L 776 725 L 33.246094 725 Z M 33.246094 87 " clip-rule="nonzero"/></clipPath></defs><g clip-path="url(#7ce69bb15d)"><path fill="#d78b8b" d="M 773.886719 372.355469 C 767.089844 362.289062 746.234375 351.546875 720.996094 351.476562 C 720.902344 351.476562 720.824219 351.476562 720.742188 351.476562 C 698.898438 351.476562 678.613281 359.691406 661.722656 374.953125 L 661.722656 266.617188 C 661.722656 235.613281 636.507812 210.398438 605.503906 210.398438 L 593.695312 210.398438 L 593.695312 174.171875 L 606.09375 174.171875 C 617.113281 174.171875 626.082031 165.207031 626.082031 154.1875 L 626.082031 107.09375 C 626.082031 96.074219 617.113281 87.109375 606.09375 87.109375 L 456.695312 87.109375 C 445.679688 87.109375 436.710938 96.074219 436.710938 107.09375 L 436.710938 154.1875 C 436.710938 165.207031 445.679688 174.171875 456.695312 174.171875 L 465.835938 174.171875 L 465.835938 210.398438 L 457.277344 210.398438 C 426.285156 210.398438 401.066406 235.613281 401.066406 266.617188 L 401.066406 400.679688 C 392.242188 398.453125 382.949219 396.054688 373.984375 393.734375 C 337.109375 384.1875 302.277344 375.164062 288.753906 374.558594 C 251.03125 372.9375 214.597656 399.277344 195.667969 415.390625 C 184.210938 425.863281 172.527344 436.871094 162.230469 446.578125 C 153.496094 454.816406 145.121094 462.703125 139.238281 468.003906 L 126.851562 454.488281 C 123.117188 450.417969 116.792969 450.152344 112.746094 453.863281 L 36.492188 523.574219 C 34.535156 525.359375 33.375 527.867188 33.257812 530.511719 C 33.140625 533.15625 34.082031 535.742188 35.867188 537.703125 L 203.707031 720.796875 C 205.679688 722.941406 208.371094 724.03125 211.074219 724.03125 C 213.484375 724.03125 215.886719 723.171875 217.8125 721.421875 L 294.089844 651.699219 C 296.046875 649.914062 297.207031 647.40625 297.324219 644.761719 C 297.441406 642.117188 296.5 639.53125 294.714844 637.570312 L 280.078125 621.601562 C 287.152344 614.464844 298.355469 605.5 308.125 605.847656 C 312.53125 606.046875 326.242188 609.628906 340.738281 613.421875 C 376.652344 622.804688 429.683594 636.667969 473.25 636.667969 C 491.214844 636.667969 507.582031 634.300781 520.457031 628.316406 C 562.933594 608.539062 755.328125 422.289062 774.597656 382.296875 C 776.152344 379.082031 775.871094 375.300781 773.886719 372.355469 Z M 456.695312 107.09375 L 606.09375 107.09375 L 606.105469 154.1875 L 456.707031 154.1875 L 456.707031 107.09375 Z M 485.824219 174.160156 L 573.710938 174.160156 L 573.710938 210.386719 L 485.824219 210.386719 Z M 421.054688 266.605469 C 421.054688 246.621094 437.304688 230.371094 457.289062 230.371094 L 605.503906 230.371094 C 625.488281 230.371094 641.75 246.632812 641.75 266.605469 L 641.75 395.300781 L 642.074219 395.300781 L 567.679688 438.34375 C 558.96875 423.984375 543.515625 414.054688 525.515625 413.242188 L 441.503906 409.460938 C 438.136719 409.3125 430.585938 407.769531 421.042969 405.542969 L 421.042969 266.605469 Z M 211.699219 699.941406 L 57.359375 531.578125 L 118.871094 475.34375 L 273.222656 643.707031 Z M 512.023438 610.1875 C 474.421875 627.710938 390.746094 605.824219 345.785156 594.085938 C 325.917969 588.890625 315.246094 586.164062 309.015625 585.886719 C 291.351562 585.003906 275.597656 597.554688 266.480469 606.777344 L 152.765625 482.722656 C 158.261719 477.757812 165.8125 470.671875 175.949219 461.101562 C 186.179688 451.460938 197.78125 440.523438 208.902344 430.351562 C 225.328125 416.375 257.308594 393.074219 287.871094 394.5 C 299.308594 395.007812 336.332031 404.601562 368.984375 413.058594 C 407.238281 422.964844 431.144531 429.007812 440.621094 429.4375 L 524.632812 433.21875 C 542.289062 434.015625 555.996094 449.027344 555.210938 466.679688 C 554.410156 484.335938 539.15625 498.023438 521.746094 497.257812 L 381.742188 490.945312 L 380.851562 510.910156 L 520.851562 517.21875 C 521.640625 517.253906 522.429688 517.277344 523.21875 517.277344 C 550.835938 517.277344 573.90625 495.445312 575.171875 467.574219 C 575.320312 464.117188 575.101562 460.730469 574.601562 457.4375 L 657.351562 409.554688 C 658.640625 408.800781 659.753906 407.78125 660.585938 406.550781 C 680.398438 377.574219 704.199219 371.464844 720.742188 371.464844 C 720.800781 371.464844 720.867188 371.464844 720.9375 371.464844 C 735.390625 371.507812 746.875 376.078125 752.929688 379.871094 C 721.195312 427.546875 549.480469 592.753906 512.023438 610.1875 Z M 521.410156 337.394531 L 488.003906 337.394531 L 488.003906 317.421875 L 521.410156 317.421875 L 521.410156 284.015625 L 541.394531 284.015625 L 541.394531 317.421875 L 574.800781 317.421875 L 574.800781 337.40625 L 541.394531 337.40625 L 541.394531 370.8125 L 521.410156 370.8125 Z M 521.410156 337.394531 " fill-opacity="1" fill-rule="nonzero"/></g></svg>