<svg xmlns="http://www.w3.org/2000/svg" xmlns:xlink="http://www.w3.org/1999/xlink" width="1080" zoomAndPan="magnify" viewBox="0 0 810 809.999993" height="1080" preserveAspectRatio="xMidYMid meet" version="1.0"><defs><clipPath id="74e808d75c"><path d="M 43.292969 152.046875 L 767.042969 152.046875 L 767.042969 596.046875 L 43.292969 596.046875 Z M 43.292969 152.046875 " clip-rule="nonzero"/></clipPath><clipPath id="ed110ea137"><path d="M 77 207 L 746 207 L 746 596.046875 L 77 596.046875 Z M 77 207 " clip-rule="nonzero"/></clipPath></defs><g clip-path="url(#74e808d75c)"><rect x="-81" width="972" fill="#ffffff" y="-80.999999" height="971.999992" fill-opacity="1"/><rect x="-81" width="972" fill="#ffffff" y="-80.999999" height="971.999992" fill-opacity="1"/></g><g clip-path="url(#ed110ea137)"><path fill="#e5bbbb" d="M 634.265625 374.398438 C 572.804688 374.398438 522.964844 424.261719 522.964844 485.730469 C 522.964844 547.195312 572.804688 597.03125 634.265625 597.03125 C 695.730469 597.03125 745.566406 547.195312 745.566406 485.730469 C 745.566406 424.261719 695.730469 374.398438 634.265625 374.398438 Z M 634.265625 569.207031 C 588.246094 569.207031 550.792969 531.753906 550.792969 485.730469 C 550.792969 439.703125 588.246094 402.226562 634.265625 402.226562 C 680.289062 402.226562 717.742188 439.703125 717.742188 485.730469 C 717.742188 531.753906 680.289062 569.207031 634.265625 569.207031 Z M 638.910156 531.617188 L 638.910156 541.382812 L 629.621094 541.382812 L 629.621094 532.117188 C 620.046875 531.945312 610.089844 529.667969 601.796875 525.375 L 606.023438 510.136719 C 613.09375 512.890625 621.996094 515.753906 629.984375 515.753906 L 635.910156 515.144531 C 646.570312 512.742188 648.765625 501.785156 636.996094 496.496094 C 628.339844 492.464844 601.933594 489.007812 601.933594 466.417969 C 601.933594 453.761719 611.5625 442.464844 629.589844 439.984375 L 629.589844 430.082031 L 638.886719 430.082031 L 638.886719 439.511719 C 645.5625 439.679688 653.128906 440.878906 661.535156 443.4375 L 658.171875 458.679688 C 651.714844 456.433594 644.621094 454.339844 637.632812 454.339844 L 635.523438 454.398438 C 621.714844 455.203125 620.464844 467.175781 630.144531 472.183594 C 645.980469 479.636719 666.714844 485.175781 666.714844 505.039062 C 666.738281 520.980469 654.296875 529.472656 638.910156 531.617188 Z M 272.542969 374.433594 C 272.542969 420.507812 309.9375 457.90625 356.015625 457.90625 C 402.09375 457.90625 439.492188 420.507812 439.492188 374.433594 C 439.492188 328.355469 402.09375 290.957031 356.015625 290.957031 C 309.9375 290.957031 272.542969 328.355469 272.542969 374.433594 Z M 380.589844 336.367188 L 377.578125 350.085938 C 371.183594 347.855469 364.082031 345.792969 357.183594 346.210938 C 344.777344 346.9375 343.664062 357.710938 352.34375 362.210938 C 366.644531 368.949219 385.234375 373.902344 385.234375 391.789062 C 385.289062 406.121094 374.074219 413.800781 360.242188 415.71875 L 360.242188 424.488281 L 351.847656 424.488281 L 351.847656 416.167969 C 343.191406 416.023438 334.253906 413.972656 326.855469 410.132812 L 330.613281 396.410156 C 338.601562 399.472656 349.230469 402.78125 357.546875 400.921875 C 367.144531 398.746094 369.089844 388.867188 358.496094 384.109375 C 350.726562 380.527344 326.96875 377.378906 326.96875 357.042969 C 326.96875 345.65625 335.648438 335.472656 351.871094 333.25 L 351.871094 324.371094 L 360.242188 324.371094 L 360.242188 332.855469 C 366.226562 333 373.019531 334.054688 380.589844 336.367188 Z M 500.761719 541.382812 L 77.765625 541.382812 L 77.765625 207.480469 L 634.265625 207.480469 L 634.265625 341.011719 C 614.542969 341.011719 595.757812 345.046875 578.617188 352.195312 L 578.617188 318.273438 C 551.933594 306.59375 539.800781 289.8125 528.144531 263.132812 L 183.890625 263.132812 C 172.230469 289.8125 160.097656 306.59375 133.417969 318.273438 L 133.417969 430.582031 C 160.097656 442.261719 172.230469 459.019531 183.890625 485.730469 L 489.578125 485.730469 C 489.578125 505.433594 493.578125 524.242188 500.761719 541.382812 Z M 500.761719 541.382812 " fill-opacity="1" fill-rule="nonzero"/></g></svg>