<?xml version="1.0"?>
<svg width="100.74" height="123.12" xmlns="http://www.w3.org/2000/svg" xmlns:svg="http://www.w3.org/2000/svg" enable-background="new 0 0 100.74 123.12" version="1.1" xml:space="preserve">
 <style type="text/css">.st0{fill-rule:evenodd;clip-rule:evenodd;}</style>
 <g class="layer">
  <title>Layer 1</title>
  <g id="svg_1">
   <path class="st0" d="m25.85,39.9c7.63,8.19 19.42,-2.54 30.91,-5.54c6.52,-1.71 10.03,9.87 18.44,5.64l0.79,9.16c5.23,-1.18 1.51,14.95 -3.03,14.11c-1.49,4.93 -2.06,8.42 -4.5,11.69c-4.58,6.12 -11.98,9.24 -17.91,9.11c-5.6,-0.12 -12.72,-3.2 -17.28,-8.84c-2.81,-3.47 -3.72,-7.29 -5.46,-12.62c-4.83,1.44 -8.07,-14.93 -2.82,-13.53l0.86,-9.18l0,0zm33.13,-25.56l0,2.02c0,0.94 -0.77,1.7 -1.7,1.7l-3.43,0l0,3.43c0,0.94 -0.77,1.7 -1.7,1.7l-2.02,0c-0.94,0 -1.7,-0.77 -1.7,-1.7l0,-3.43l-3.43,0c-0.94,0 -1.7,-0.77 -1.7,-1.7l0,-2.02c0,-0.94 0.77,-1.7 1.7,-1.7l3.43,0l0,-3.44c0,-0.94 0.77,-1.7 1.7,-1.7l2.02,0c0.94,0 1.7,0.77 1.7,1.7l0,3.43l3.43,0c0.93,0.01 1.7,0.77 1.7,1.71l0,0zm-20.02,-14.34l24.34,0c0.84,0 1.72,0.12 2.59,0.35c1.88,0.49 3.65,1.5 4.97,2.84c1.49,1.53 2.45,3.48 2.45,5.66c0,0.59 -0.08,1.22 -0.25,1.88l-2.27,8.68c0.69,0.75 1.35,1.56 1.96,2.43c13.43,19.08 17.89,53.44 -4.17,57.87c2.93,1.89 6.52,2.21 10.21,2c11.11,0.28 18.85,5.04 21.96,15.98l0,19.86c-0.01,2.89 -1.74,4.87 -5.87,5.57l-39.76,0l9.8,-42.73c-1.25,0.96 -2.57,1.79 -3.92,2.48c-3.47,1.77 -7.19,2.63 -10.48,2.56c-3.11,-0.07 -6.65,-0.99 -10,-2.7c-1.52,-0.78 -3.01,-1.73 -4.41,-2.84l-0.4,-0.09l9.91,43.31l-39.75,0c-4.13,-0.7 -5.85,-2.68 -5.87,-5.57l0,-19.85c3.1,-10.95 10.85,-15.7 21.96,-15.98c4.01,0.23 7.9,-0.19 10.98,-2.54c-11.35,-2.81 -16.16,-6.83 -16.16,-23.06l0,-5.54c0.71,-12.14 3.77,-22.89 10.31,-30.75c0.97,-1.17 2.21,-2.26 3.66,-3.25l-1.53,-5.84c-0.17,-0.66 -0.25,-1.29 -0.25,-1.88c0,-2.18 0.95,-4.13 2.45,-5.66c1.31,-1.34 3.09,-2.35 4.96,-2.84c0.86,-0.23 1.73,-0.35 2.58,-0.35l0,0zm0,3.43l24.34,0c3.54,0 7.33,3.01 6.43,6.43l-1.81,6.91l-1.22,4.65c-0.89,3.42 -2.9,6.43 -6.43,6.43l-18.3,0c-3.53,0 -5.54,-3.01 -6.43,-6.43l-1.74,-6.66l-1.28,-4.91c-0.89,-3.41 2.9,-6.42 6.44,-6.42l0,0zm30.86,104.07l12.9,0l0,3.09l-12.9,0l0,-3.09l0,0zm-20.93,15.62l-6.57,-21.8c5.15,1.09 10.56,1.2 16.32,0l-6.27,21.8l-3.48,0l0,0zm-1.1,-58.82c-0.31,-0.29 -0.33,-0.79 -0.05,-1.11c0.28,-0.32 0.75,-0.34 1.06,-0.05c0.54,0.52 1.06,0.77 1.55,0.76c0.5,-0.01 1.03,-0.27 1.58,-0.78c0.31,-0.28 0.79,-0.25 1.06,0.08c0.27,0.33 0.24,0.83 -0.08,1.11c-0.82,0.75 -1.67,1.15 -2.55,1.16c-0.88,0.02 -1.73,-0.36 -2.57,-1.17l0,0zm19.63,-15.17c0.32,0.28 0.36,0.78 0.1,1.11c-0.26,0.34 -0.74,0.38 -1.06,0.11c-1.43,-1.25 -4.25,-0.71 -6.68,-0.25c-1.27,0.24 -2.44,0.46 -3.37,0.43c-0.41,-0.02 -0.74,-0.38 -0.72,-0.82c0.01,-0.44 0.36,-0.78 0.78,-0.76c0.77,0.03 1.86,-0.18 3.05,-0.4c2.74,-0.53 5.94,-1.14 7.9,0.58l0,0zm-26.06,6.85c0.07,0.21 0.11,0.43 0.11,0.66c0,1.07 -0.82,1.93 -1.83,1.93c-1.01,0 -1.83,-0.86 -1.83,-1.93c0,-0.38 0.1,-0.74 0.28,-1.03c-1.01,0.06 -2.02,0.29 -3.04,0.71c-0.35,0.15 -0.74,-0.08 -0.86,-0.5c-0.12,-0.42 0.07,-0.89 0.42,-1.03c1.36,-0.56 2.73,-0.82 4.11,-0.81c1.37,0.01 2.73,0.29 4.09,0.81c0.36,0.13 0.55,0.59 0.44,1.02c-0.11,0.43 -0.49,0.67 -0.85,0.53c-0.34,-0.14 -0.69,-0.26 -1.04,-0.36l0,0zm18.09,-0.17c-0.06,0.2 -0.1,0.41 -0.1,0.63c0,1.07 0.82,1.93 1.83,1.93s1.83,-0.86 1.83,-1.93c0,-0.34 -0.08,-0.66 -0.23,-0.93c1,0.07 2,0.27 3.02,0.62c0.36,0.12 0.73,-0.13 0.83,-0.56c0.1,-0.43 -0.11,-0.88 -0.46,-1c-1.37,-0.47 -2.73,-0.71 -4.1,-0.7c-1.36,0 -2.71,0.24 -4.05,0.71c-0.36,0.12 -0.56,0.57 -0.46,1c0.1,0.43 0.48,0.68 0.83,0.55c0.36,-0.12 0.71,-0.23 1.06,-0.32l0,0zm-25.09,-5.26c-0.32,0.28 -0.79,0.23 -1.06,-0.11c-0.26,-0.34 -0.22,-0.83 0.1,-1.11c1.96,-1.71 5.16,-1.11 7.9,-0.58c1.19,0.23 2.28,0.43 3.05,0.4c0.41,-0.02 0.76,0.33 0.78,0.76c0.01,0.44 -0.31,0.8 -0.72,0.82c-0.93,0.03 -2.1,-0.19 -3.37,-0.43c-2.42,-0.46 -5.25,-1 -6.68,0.25l0,0zm9.52,20.25c-0.32,-0.27 -0.37,-0.77 -0.11,-1.11s0.73,-0.39 1.05,-0.12c2.06,1.74 3.98,2.59 5.79,2.58c1.77,-0.01 3.47,-0.86 5.1,-2.53c0.3,-0.3 0.77,-0.3 1.06,0.02c0.29,0.31 0.28,0.81 -0.02,1.12c-1.91,1.97 -3.96,2.97 -6.14,2.98c-2.16,0 -4.4,-0.97 -6.73,-2.94l0,0z" fill="#d78b8b" id="svg_2"/>
  </g>
  <path d="m27.61,45.69c1.23,1.13 1.58,2.09 1.94,3.21c0.34,1.07 0.62,2.17 1.23,2.92c0.77,0.95 1.49,1.93 1.9,2.78c0.52,1.07 1.24,1.92 1.66,2.96c0.4,0.98 0.78,1.88 1.64,2.67c0.84,0.77 1.5,1.25 2,2.27c0.44,0.9 1.1,1.74 1.62,2.52c0.7,1.04 2.13,0.69 2.65,1.56c0.54,0.89 0.47,2.02 1.2,2.74c0.66,0.66 1.13,1.55 1.13,2.74c0,1.12 -0.29,2.56 0.4,3.01c0.83,0.54 1.98,-0.14 2.99,0c1.02,0.14 1.11,1.47 1.82,2.01c0.92,0.7 2.03,0.54 3.05,0.54c0.98,0 1.96,0.08 3.05,-0.21c0.93,-0.25 1.6,-0.65 2.72,-1.32c0.88,-0.53 1.67,-1.2 2.23,-2.07c0.54,-0.85 1.09,-2.11 1.97,-2.62c0.95,-0.55 1.75,-0.88 2.49,-1.82c0.66,-0.85 0.58,-1.96 0.86,-3.07c0.29,-1.15 0.88,-2.08 1.1,-3.16c0.24,-1.22 0.89,-1.89 1.09,-3.14c0.17,-1.06 -0.23,-2.21 0.26,-3.3c0.39,-0.87 0.88,-1.91 0.88,-3.05c0,-1.14 0.22,-2.3 0,-3.5c-0.16,-0.89 -0.92,-1.68 -1.72,-2.08c-0.91,-0.45 -1.84,-0.53 -2.68,-0.94c-1,-0.49 -2.12,-0.36 -3.13,-0.36c-0.97,0 -2.03,0 -3,0c-1.05,0 -1.54,-0.79 -2.25,-1.28c-0.89,-0.6 -1.81,0 -2.88,0c-1.14,0 -2.04,0 -3.21,0c-0.85,0 -1.97,0 -2.92,0c-1.05,0 -1.94,0 -2.83,0c-1.27,0 -2.12,0 -3.3,0c-0.79,0 -1.93,-0.11 -2.98,0c-1.01,0.11 -1.71,0.66 -2.88,1.06c-0.84,0.29 -1.96,0.21 -2.95,0.21c-0.98,0 -1.96,0 -2.9,0l-1.11,0l-0.93,0l-1.04,0" fill="#ffffff" id="svg_6" stroke="#ffffff"/>
 </g>
</svg>